<svg width="20" height="21" viewBox="0 0 20 21" fill="none" xmlns="http://www.w3.org/2000/svg">
<path d="M11.6686 13.8333H15.8353V18M8.33529 7.16667H4.16862V3M16.1832 8.00263C15.716 6.84618 14.9337 5.84399 13.9253 5.10999C12.9169 4.37598 11.7229 3.9396 10.4788 3.85042C9.23476 3.76125 7.99034 4.02284 6.88753 4.60551C5.78473 5.18819 4.86764 6.06857 4.24023 7.14655M3.82031 12.9974C4.28755 14.1538 5.06984 15.156 6.07826 15.89C7.08669 16.624 8.28116 17.0604 9.52524 17.1496C10.7693 17.2388 12.0133 16.9771 13.1161 16.3945C14.2189 15.8118 15.1356 14.9315 15.763 13.8535" stroke="#737373" stroke-width="1.4" stroke-linecap="round" stroke-linejoin="round"/>
</svg>
