<svg width="24" height="24" viewBox="0 0 24 24" fill="none" xmlns="http://www.w3.org/2000/svg">
<path d="M9 6L12 3M12 3L15 6M12 3V13M7.00023 10C6.06835 10 5.60241 10 5.23486 10.1522C4.74481 10.3552 4.35523 10.7446 4.15224 11.2346C4 11.6022 4 12.0681 4 13V17.8C4 18.9201 4 19.4802 4.21799 19.908C4.40973 20.2844 4.71547 20.5902 5.0918 20.782C5.51962 21 6.08009 21 7.2002 21H16.8002C17.9203 21 18.48 21 18.9078 20.782C19.2841 20.5902 19.5905 20.2844 19.7822 19.908C20.0002 19.4802 20 18.9201 20 17.8V13C20 12.0681 19.9999 11.6022 19.8477 11.2346C19.6447 10.7446 19.2554 10.3552 18.7654 10.1522C18.3978 10 17.9319 10 17 10" stroke="#333333" stroke-width="2" stroke-linecap="round" stroke-linejoin="round"/>
</svg>
