<svg width="24" height="24" viewBox="0 0 24 24" fill="none" xmlns="http://www.w3.org/2000/svg">
<path d="M4.74794 7.64527L4.41795 11.2751L4.41697 11.2859C4.36774 11.8274 4.34298 12.0997 4.38796 12.3585C4.42809 12.5892 4.50808 12.8112 4.62498 13.0142C4.75616 13.2419 4.94997 13.4357 5.33506 13.8208L5.34178 13.8275L10.5045 18.9902L10.5092 18.9949C11.2981 19.7838 11.6928 20.1786 12.1486 20.3267C12.5503 20.4572 12.9831 20.4572 13.3848 20.3267C13.8414 20.1783 14.2382 19.7822 15.0303 18.9902L18.9901 15.0304C19.7821 14.2384 20.1773 13.8424 20.3257 13.3857C20.4562 12.9841 20.4562 12.5514 20.3257 12.1497C20.1773 11.6931 19.7819 11.297 18.9899 10.505L13.8271 5.34229C13.4376 4.95272 13.2427 4.75792 13.0137 4.62598C12.8107 4.50908 12.5886 4.42871 12.3578 4.38859C12.0974 4.34331 11.823 4.36821 11.2743 4.41809L7.64452 4.74808L7.64363 4.74816C6.69946 4.83399 6.22696 4.87694 5.85741 5.08245C5.53148 5.26369 5.2627 5.53247 5.08146 5.8584C4.87694 6.22618 4.83426 6.69567 4.74925 7.6308L4.74794 7.64527Z" stroke="#333333" stroke-width="2" stroke-linecap="round" stroke-linejoin="round"/>
</svg>
