<svg width="54" height="40" viewBox="0 0 54 40" fill="none" xmlns="http://www.w3.org/2000/svg">
  <path d="M16.293 0.825538C16.4552 0.644562 16.868 0.380057 17.1924 0.240845C17.7527 -0.00973815 18.2982 -0.0236594 27.248 0.0181044L27.286 0.0182177C36.5815 0.0459475 36.7144 0.0463439 37.1267 0.338294C37.3478 0.491428 37.6722 0.811617 37.8344 1.03436C37.9966 1.2571 38.3947 2.18982 38.6896 3.10863C38.9992 4.02743 39.3973 5.12721 39.5595 5.54485C39.7364 5.96249 40.046 6.4915 40.2525 6.70031C40.4589 6.92306 40.8128 7.18756 41.0339 7.29893C41.3583 7.45206 42.2577 7.49383 45.1623 7.49383C47.8605 7.49383 49.0695 7.54951 49.5561 7.68873C49.9247 7.78617 50.4408 7.98107 50.6914 8.10636C50.9568 8.23166 51.5024 8.64929 51.9152 9.02517C52.3133 9.41496 52.7409 9.88829 52.8588 10.111C52.9768 10.3198 53.1685 10.7792 53.3012 11.1412C53.5076 11.7398 53.5371 13.1737 53.4633 36.2413L53.0652 37.0069C52.8588 37.4246 52.328 38.1206 51.8857 38.5522C51.3254 39.123 50.8536 39.4292 49.3349 40H26.9974H26.9965C5.17581 40 4.64502 40 3.92256 39.7216C3.50972 39.5824 2.81674 39.1647 2.37441 38.8167C1.82887 38.3851 1.41603 37.8979 1.13589 37.341C0.899981 36.8956 0.649328 36.3944 0.575607 36.2413C0.501886 36.0881 0.472397 30.4222 0.531374 11.3222L0.958958 10.4869C1.20961 10.0275 1.6372 9.40104 1.94683 9.09477C2.24171 8.78851 3.34463 7.83688 4.51233 7.56343L8.27212 7.52167C10.3363 7.50775 12.2531 7.46599 12.5037 7.42422C12.7691 7.38246 13.2409 7.1458 13.5358 6.88129C14.0371 6.46365 14.1993 6.15739 15.0397 3.79077C15.5558 2.34296 16.1161 1.00651 16.293 0.825538Z" fill="#DAD8D6"/>
  <svg width="54" height="40" viewBox="0 0 54 40" fill="none" xmlns="http://www.w3.org/2000/svg">
    <ellipse cx="26" cy="23" rx="11.7257" ry="11.7647" fill="#FAF8F6"/>
    <ellipse cx="26" cy="23" rx="6.56637" ry="6.58823" fill="#DAD8D6"/>
  </svg>
</svg>
