<svg width="24" height="24" viewBox="0 0 24 24" fill="none" xmlns="http://www.w3.org/2000/svg">
<path d="M3 17L7.76798 11.4374C8.19174 10.943 8.40371 10.6958 8.65518 10.6067C8.87585 10.5285 9.11686 10.5302 9.33643 10.6115C9.58664 10.7041 9.79506 10.9541 10.2119 11.4543L12.8783 14.6541C13.2674 15.1209 13.462 15.3543 13.6985 15.4481C13.9064 15.5306 14.1357 15.541 14.3501 15.4777C14.5942 15.4057 14.8091 15.1908 15.2388 14.7611L15.7358 14.264C16.1733 13.8265 16.3921 13.6078 16.6397 13.5364C16.8571 13.4736 17.0896 13.4865 17.2988 13.5729C17.537 13.6712 17.7302 13.9129 18.1167 14.396L21 18.0001M21 6.19995V17.8C21 18.9201 21.0002 19.4802 20.7822 19.908C20.5905 20.2844 20.2841 20.5902 19.9078 20.782C19.48 21 18.9203 21 17.8002 21H6.2002C5.08009 21 4.51962 21 4.0918 20.782C3.71547 20.5902 3.40973 20.2844 3.21799 19.908C3 19.4802 3 18.9201 3 17.8V6.19995C3 5.07985 3 4.51986 3.21799 4.09204C3.40973 3.71572 3.71547 3.40973 4.0918 3.21799C4.51962 3 5.08009 3 6.2002 3H17.8002C18.9203 3 19.48 3 19.9078 3.21799C20.2841 3.40973 20.5905 3.71572 20.7822 4.09204C21.0002 4.51986 21 5.07985 21 6.19995ZM15 9C14.4477 9 14 8.55228 14 8C14 7.44772 14.4477 7 15 7C15.5523 7 16 7.44772 16 8C16 8.55228 15.5523 9 15 9Z" stroke="#333333" stroke-width="2" stroke-linecap="round" stroke-linejoin="round"/>
</svg>
