<svg width="20" height="21" viewBox="0 0 20 21" fill="none"
  xmlns="http://www.w3.org/2000/svg">
  <path d="M3.33594 17.1679H2.63594C2.63594 17.3535 2.70969 17.5316 2.84096 17.6628C2.97224 17.7941 3.15029 17.8679 3.33594 17.8679L3.33594 17.1679ZM3.33594 13.8345L2.84096 13.3396C2.70969 13.4708 2.63594 13.6489 2.63594 13.8345H3.33594ZM12.3931 4.77732L11.8982 4.28234L11.8982 4.28234L12.3931 4.77732ZM14.2787 4.77732L13.7838 5.27229V5.27229L14.2787 4.77732ZM15.7264 6.22503L16.2214 5.73006V5.73006L15.7264 6.22503ZM15.7265 8.11065L15.2315 7.61568V7.61568L15.7265 8.11065ZM6.66927 17.1678L6.66927 17.8678C6.85492 17.8678 7.03297 17.7941 7.16425 17.6628L6.66927 17.1678ZM16.2833 6.91037L16.9491 6.69405L16.2833 6.91037ZM16.2833 7.42533L15.6176 7.20902V7.20902L16.2833 7.42533ZM13.0784 4.22047L12.8621 3.55473L13.0784 4.22047ZM13.5935 4.22047L13.8098 3.55473L13.5935 4.22047ZM10.4976 6.67289C10.2242 6.39952 9.781 6.39952 9.50763 6.67289C9.23426 6.94625 9.23426 7.38947 9.50763 7.66284L10.4976 6.67289ZM12.841 10.9962C13.1143 11.2695 13.5575 11.2695 13.8309 10.9962C14.1043 10.7228 14.1043 10.2796 13.8309 10.0062L12.841 10.9962ZM4.03594 17.1679V13.8345H2.63594V17.1679H4.03594ZM3.83091 14.3295L12.8881 5.27229L11.8982 4.28234L2.84096 13.3396L3.83091 14.3295ZM13.7838 5.27229L15.2315 6.72001L16.2214 5.73006L14.7737 4.28234L13.7838 5.27229ZM15.2315 7.61568L6.1743 16.6729L7.16425 17.6628L16.2214 8.60563L15.2315 7.61568ZM6.66927 16.4678L3.33593 16.4679L3.33594 17.8679L6.66927 17.8678L6.66927 16.4678ZM15.2315 6.72001C15.4046 6.89318 15.5044 6.99369 15.5718 7.07313C15.634 7.14633 15.6266 7.15444 15.6176 7.12668L16.9491 6.69405C16.8782 6.47602 16.7574 6.30647 16.6391 6.16707C16.526 6.03392 16.3783 5.8869 16.2214 5.73006L15.2315 6.72001ZM16.2214 8.60563C16.3783 8.44878 16.5261 8.30176 16.6391 8.16861C16.7574 8.02921 16.8782 7.85967 16.9491 7.64164L15.6176 7.20902C15.6266 7.18126 15.634 7.18938 15.5718 7.26257C15.5044 7.342 15.4047 7.44251 15.2315 7.61568L16.2214 8.60563ZM15.6176 7.12668C15.6263 7.15346 15.6263 7.18224 15.6176 7.20902L16.9491 7.64164C17.0491 7.33368 17.0491 7.00201 16.9491 6.69405L15.6176 7.12668ZM12.8881 5.27229C13.0613 5.09913 13.1618 4.9994 13.2412 4.93197C13.3144 4.86985 13.3225 4.8772 13.2948 4.88621L12.8621 3.55473C12.6441 3.62557 12.4746 3.74634 12.3352 3.86468C12.202 3.97771 12.055 4.12549 11.8982 4.28234L12.8881 5.27229ZM14.7737 4.28234C14.6169 4.12553 14.4699 3.97775 14.3368 3.86473C14.1974 3.74639 14.0279 3.62559 13.8098 3.55473L13.3772 4.88621C13.3494 4.87718 13.3575 4.8698 13.4306 4.93192C13.5101 4.99937 13.6105 5.09909 13.7838 5.27229L14.7737 4.28234ZM13.2948 4.88621C13.3215 4.87751 13.3504 4.87751 13.3772 4.88621L13.8098 3.55473C13.5019 3.45467 13.1701 3.45467 12.8621 3.55473L13.2948 4.88621ZM9.50763 7.66284L12.841 10.9962L13.8309 10.0062L10.4976 6.67289L9.50763 7.66284Z" fill="#737373"/>
</svg>
