<svg width="24" height="24" viewBox="0 0 24 24" fill="none" xmlns="http://www.w3.org/2000/svg">
<path d="M10.3076 13.6922L15.1538 8.84607M20.1112 5.88855L16.0205 19.1831C15.6538 20.3749 15.4706 20.9708 15.1543 21.1684C14.8801 21.3398 14.5402 21.3679 14.2415 21.244C13.8971 21.1011 13.6179 20.5434 13.0602 19.4281L10.4693 14.2462C10.3808 14.0692 10.3365 13.9807 10.2774 13.904C10.2249 13.836 10.1642 13.7749 10.0961 13.7225C10.0194 13.6634 9.9307 13.6191 9.75371 13.5306L4.5718 10.9397C3.4565 10.382 2.89879 10.1033 2.75588 9.75891C2.63195 9.46022 2.66021 9.11992 2.83157 8.84567C3.02915 8.52943 3.62511 8.34614 4.81692 7.97943L18.1115 3.88879C19.0485 3.6005 19.5168 3.45633 19.8333 3.57251C20.1089 3.67371 20.3264 3.89096 20.4276 4.16662C20.5438 4.48311 20.3995 4.95159 20.1112 5.88855Z" stroke="#333333" stroke-width="2" stroke-linecap="round" stroke-linejoin="round"/>
</svg>
