<svg width="224" height="42" viewBox="0 0 224 42" fill="none" xmlns="http://www.w3.org/2000/svg">
<path d="M208.807 42.0015C206.075 42.0015 203.85 41.7567 202.131 41.267C200.412 40.7774 199.169 40.1501 198.402 39.3851C197.665 38.62 197.297 37.8091 197.297 36.9523C197.297 35.9118 197.604 35.0703 198.218 34.4277C198.862 33.8157 199.706 33.5097 200.75 33.5097C200.996 33.5097 201.441 33.5556 202.085 33.6474L202.592 33.7392V40.1654C202.96 40.2878 203.543 40.4408 204.341 40.6244C205.753 40.9304 207.088 41.0834 208.347 41.0834C212.091 41.0834 214.823 40.5479 216.542 39.4769C218.292 38.4364 219.166 37.1359 219.166 35.5752C219.166 33.5862 217.325 32.5916 213.641 32.5916H204.894C202.592 32.5916 200.827 32.1173 199.599 31.1687C198.371 30.22 197.757 29.0113 197.757 27.5424C197.757 26.0736 198.479 24.773 199.921 23.6408C200.504 23.2124 201.241 22.8299 202.131 22.4932C200.996 21.7894 200.167 20.9632 199.645 20.0145C199.154 19.0353 198.908 17.8725 198.908 16.526C198.908 14.2615 199.768 12.4408 201.487 11.0637C203.205 9.65606 205.722 8.95223 209.037 8.95223C210.48 8.95223 211.8 9.10524 212.997 9.41125C214.225 9.68666 215.207 10.0692 215.943 10.5588C216.189 10.0386 216.511 9.57956 216.91 9.18174C217.831 8.26371 218.967 7.80469 220.317 7.80469C221.361 7.80469 222.236 8.1719 222.942 8.90633C223.648 9.61016 224.001 10.5435 224.001 11.7063C224.001 12.5938 223.755 13.3129 223.264 13.8637C222.804 14.4145 222.205 14.6899 221.468 14.6899C221.131 14.6899 220.747 14.6593 220.317 14.5981L219.857 14.4604V8.95223C219.059 8.95223 218.307 9.33475 217.601 10.0998C217.325 10.3752 217.079 10.7577 216.864 11.2473C218.399 12.5938 219.166 14.3533 219.166 16.526C219.166 18.7905 218.307 20.6266 216.588 22.0342C214.869 23.4113 212.352 24.0998 209.037 24.0998C206.827 24.0998 204.832 23.7173 203.052 22.9523L202.131 23.4113C201.824 23.5949 201.594 23.7785 201.441 23.9621C201.287 24.1151 201.21 24.314 201.21 24.5588C201.21 25.079 201.471 25.4769 201.993 25.7523C202.546 26.0277 203.512 26.1654 204.894 26.1654H213.641C215.943 26.1654 217.739 26.8386 219.028 28.1851C220.348 29.5009 221.008 31.3523 221.008 33.7392C221.008 36.1873 219.98 38.1763 217.923 39.7064C215.897 41.2365 212.859 42.0015 208.807 42.0015ZM209.037 23.1818C210.05 23.1818 210.833 22.6922 211.385 21.7129C211.969 20.7337 212.26 19.0047 212.26 16.526C212.26 14.0473 211.969 12.3184 211.385 11.3391C210.833 10.3599 210.05 9.87027 209.037 9.87027C208.024 9.87027 207.226 10.3599 206.643 11.3391C206.091 12.3184 205.814 14.0473 205.814 16.526C205.814 19.0047 206.091 20.7337 206.643 21.7129C207.226 22.6922 208.024 23.1818 209.037 23.1818Z" fill="#FFA500"/>
<path d="M167.367 31.4431L170.13 30.7545V10.5578L167.367 9.86924V9.18071H171.511C173.322 9.18071 174.749 9.76214 175.793 10.925C176.192 11.384 176.529 11.9501 176.806 12.6233C177.235 11.8277 177.742 11.1392 178.325 10.5578C179.706 9.18071 181.425 8.49219 183.482 8.49219C185.2 8.49219 186.735 8.8594 188.086 9.59383C189.467 10.2977 190.541 11.231 191.308 12.3938C192.076 13.5567 192.459 14.7807 192.459 16.066V30.7545L195.222 31.4431V32.1316H189.237C186.474 32.1316 185.093 30.7545 185.093 28.0004V16.066C185.093 14.1381 184.74 12.6692 184.034 11.6594C183.359 10.619 182.561 10.0987 181.64 10.0987C180.474 10.0987 179.43 10.7108 178.509 11.9348C178.11 12.455 177.772 13.0671 177.496 13.7709V30.7545L180.259 31.4431V32.1316H167.367V31.4431Z" fill="#FFA500"/>
<path d="M154.033 32.8201C150.104 32.8201 147.05 31.7491 144.87 29.607C142.691 27.4343 141.602 24.4507 141.602 20.6561C141.602 18.1775 142.077 16.0201 143.029 14.184C143.98 12.3479 145.3 10.9403 146.988 9.96104C148.707 8.98181 150.672 8.49219 152.882 8.49219C155.092 8.49219 157.025 8.9053 158.683 9.73153C160.371 10.5578 161.66 11.6747 162.55 13.0824C163.471 14.4594 163.931 15.9895 163.931 17.6725C163.931 18.4376 163.855 19.0955 163.701 19.6463L163.471 20.4266C162.151 20.702 160.724 20.9316 159.189 21.1152C155.966 21.5742 152.713 21.8037 149.429 21.8037C149.429 25.3534 149.92 27.8933 150.902 29.4234C151.884 30.9228 153.235 31.6726 154.953 31.6726C156.15 31.6726 157.255 31.3972 158.268 30.8463C159.312 30.2649 160.125 29.5152 160.709 28.5972C161.322 27.6485 161.629 26.6846 161.629 25.7053H162.78C162.78 26.9294 162.412 28.0922 161.675 29.1939C160.939 30.2955 159.91 31.1829 158.591 31.8562C157.271 32.4988 155.751 32.8201 154.033 32.8201ZM149.429 20.6561C151.393 20.6561 152.989 20.5796 154.217 20.4266C154.739 20.396 155.291 20.3195 155.874 20.1971C155.905 20.0441 155.982 19.7075 156.104 19.1873C156.258 18.4223 156.335 17.6113 156.335 16.7545C156.335 14.2146 155.997 12.3632 155.322 11.2004C154.646 10.0069 153.833 9.41022 152.882 9.41022C150.58 9.41022 149.429 13.1589 149.429 20.6561Z" fill="#FFA500"/>
<path d="M122.705 32.8201C119.973 32.8201 117.871 32.2387 116.397 31.0758C114.924 29.913 114.188 28.4288 114.188 26.6234C114.188 25.4299 114.448 24.2518 114.97 23.0889C115.185 22.5381 115.461 22.0332 115.799 21.5742C117.057 21.2682 118.423 20.9928 119.897 20.748C123.212 20.1971 126.143 19.8605 128.69 19.7381V18.3611C128.69 14.9643 128.276 12.6233 127.447 11.3381C126.619 10.0528 125.345 9.41022 123.626 9.41022C122.981 9.41022 122.429 9.48673 121.968 9.63973L121.324 9.86924V16.7545L120.725 16.8922C120.234 16.9534 119.82 16.984 119.482 16.984C118.439 16.984 117.595 16.678 116.95 16.066C116.336 15.4233 116.029 14.5818 116.029 13.5414C116.029 12.1337 116.735 10.9403 118.147 9.96104C119.59 8.98181 121.723 8.49219 124.547 8.49219C126.941 8.49219 128.997 8.9206 130.716 9.77744C132.466 10.6037 133.786 11.7665 134.676 13.266C135.597 14.7348 136.057 16.4332 136.057 18.3611V30.7545L138.819 31.4431V32.1316H134.676C132.834 32.1316 131.407 31.5655 130.394 30.4332C129.964 29.9742 129.627 29.3928 129.381 28.689C128.951 29.454 128.445 30.1425 127.862 30.7545C126.48 32.1316 124.762 32.8201 122.705 32.8201ZM124.547 31.2135C125.682 31.2135 126.711 30.6015 127.631 29.3775C127.969 28.9185 128.322 28.3064 128.69 27.5414V20.8857C127.278 20.8857 125.928 20.9622 124.639 21.1152C123.687 21.2376 123.043 21.3141 122.705 21.3447C122.552 21.6813 122.398 22.1403 122.245 22.7217C121.938 23.8846 121.784 25.0321 121.784 26.1644C121.784 27.878 122.045 29.148 122.567 29.9742C123.089 30.8004 123.749 31.2135 124.547 31.2135Z" fill="#FFA500"/>
<path d="M83.1094 31.4427L85.8718 30.7542V1.37705L83.1094 0.688525V0H89.0947C91.8572 0 93.2384 1.37705 93.2384 4.13116V11.4754C93.6988 10.8634 94.1745 10.3738 94.6656 10.0066C95.9855 8.99674 97.5048 8.49182 99.2237 8.49182C100.943 8.49182 102.477 8.85904 103.828 9.59346C105.209 10.2973 106.283 11.2306 107.051 12.3935C107.818 13.5563 108.202 14.7804 108.202 16.0656V30.7542L110.964 31.4427V32.1312H104.979C102.216 32.1312 100.835 30.7542 100.835 28.0001V16.0656C100.835 14.1377 100.482 12.6689 99.7762 11.659C99.1009 10.6186 98.3029 10.0984 97.3821 10.0984C96.2157 10.0984 95.1721 10.7104 94.2513 11.9345C93.8523 12.4547 93.5146 13.0667 93.2384 13.7705V30.7542L96.0008 31.4427V32.1312H83.1094V31.4427Z" fill="#FFA500"/>
<path d="M74.356 32.8234C72.3302 32.8234 70.5653 32.4562 69.0613 31.7218C67.588 30.9874 66.4523 29.9775 65.6543 28.6923C64.8563 27.407 64.4572 25.9535 64.4572 24.3316V10.3316H61.2344V9.18406H64.4572V6.88897C64.4572 4.13486 65.8385 2.75781 68.6009 2.75781H71.8238V9.18406H78.2695V10.3316H71.8238V24.3316C71.8238 27.1469 72.1154 29.0748 72.6986 30.1152C73.2817 31.1557 74.1412 31.6759 75.2769 31.6759C76.3818 31.6759 77.3487 31.1404 78.1774 30.0693C79.0062 28.9983 79.4205 27.5447 79.4205 25.7087H80.5716C80.5716 27.9732 80.0037 29.7327 78.868 30.9874C77.7324 32.2114 76.2284 32.8234 74.356 32.8234Z" fill="#FFA500"/>
<path d="M46.7344 31.4427L49.4968 30.7542V10.5574L46.7344 9.86887V9.18035H52.7197C55.4821 9.18035 56.8634 10.5574 56.8634 13.3115V30.7542L59.6258 31.4427V32.1312H46.7344V31.4427ZM52.7197 6.42624C51.7989 6.42624 51.0315 6.12023 50.4176 5.50821C49.8038 4.89619 49.4968 4.13116 49.4968 3.21312C49.4968 2.29509 49.8038 1.53006 50.4176 0.918036C51.0315 0.306012 51.7989 0 52.7197 0C53.6405 0 54.4079 0.306012 55.0217 0.918036C55.6356 1.53006 55.9426 2.29509 55.9426 3.21312C55.9426 4.13116 55.6356 4.89619 55.0217 5.50821C54.4079 6.12023 53.6405 6.42624 52.7197 6.42624Z" fill="#FFA500"/>
<path d="M2.53225 1.14754L0 0.688525V0H5.52491C7.15169 0 8.48687 0.367214 9.53047 1.10164C10.5741 1.83607 11.3107 2.76941 11.7404 3.90165L18.6926 21.5738L22.7442 9.73117L19.3372 1.14754L16.8049 0.688525V0H22.3298C23.9566 0 25.2765 0.367214 26.2894 1.10164C27.3023 1.80547 28.0543 2.7388 28.5454 3.90165L35.4975 21.5738L42.1274 2.06558L38.6744 0.688525V0H44.294L44.0542 0.688525L43.5087 2.06558L33.1495 32.5902H31.7682L23.4809 11.6131L16.3445 32.5902H14.9633L2.53225 1.14754Z" fill="url(#paint0_linear_2180_1629)"/>
<defs>
<linearGradient id="paint0_linear_2180_1629" x1="46.9617" y1="-0.382425" x2="1.014" y2="32.2625" gradientUnits="userSpaceOnUse">
<stop stop-color="#FFA500"/>
<stop offset="0.35" stop-color="#FFC570"/>
<stop offset="0.635" stop-color="#FFA500"/>
<stop offset="1" stop-color="#FFC570"/>
</linearGradient>
</defs>
</svg>
