<svg width="160" height="30" viewBox="0 0 160 30" fill="none" xmlns="http://www.w3.org/2000/svg">
<path d="M149.147 30C147.196 30 145.607 29.8251 144.379 29.4754C143.151 29.1257 142.263 28.6776 141.715 28.1312C141.189 27.5847 140.926 27.0055 140.926 26.3934C140.926 25.6503 141.145 25.0492 141.584 24.5902C142.044 24.153 142.647 23.9344 143.392 23.9344C143.568 23.9344 143.886 23.9672 144.346 24.0328L144.708 24.0984V28.6885C144.971 28.776 145.387 28.8853 145.958 29.0164C146.966 29.235 147.92 29.3443 148.819 29.3443C151.493 29.3443 153.445 28.9618 154.672 28.1967C155.922 27.4536 156.547 26.5246 156.547 25.4098C156.547 23.9891 155.231 23.2787 152.601 23.2787H146.352C144.708 23.2787 143.447 22.9399 142.57 22.2623C141.693 21.5847 141.255 20.7213 141.255 19.6721C141.255 18.6229 141.77 17.694 142.8 16.8852C143.217 16.5792 143.743 16.306 144.379 16.0656C143.568 15.5628 142.976 14.9727 142.603 14.2951C142.252 13.5956 142.077 12.765 142.077 11.8033C142.077 10.1858 142.691 8.88521 143.919 7.9016C145.146 6.89614 146.944 6.39341 149.312 6.39341C150.342 6.39341 151.285 6.5027 152.14 6.72127C153.017 6.918 153.719 7.19122 154.245 7.54095C154.42 7.16936 154.65 6.84149 154.935 6.55734C155.593 5.9016 156.404 5.57373 157.369 5.57373C158.115 5.57373 158.739 5.83603 159.244 6.36062C159.748 6.86335 160 7.53002 160 8.36062C160 8.9945 159.825 9.50817 159.474 9.90161C159.145 10.2951 158.717 10.4918 158.191 10.4918C157.95 10.4918 157.676 10.4699 157.369 10.4262L157.04 10.3278V6.39341C156.47 6.39341 155.933 6.66663 155.429 7.21308C155.231 7.4098 155.056 7.68303 154.903 8.03275C155.999 8.9945 156.547 10.2513 156.547 11.8033C156.547 13.4207 155.933 14.7322 154.705 15.7377C153.478 16.7213 151.68 17.2131 149.312 17.2131C147.733 17.2131 146.308 16.9399 145.037 16.3934L144.379 16.7213C144.16 16.8524 143.995 16.9836 143.886 17.1147C143.776 17.224 143.721 17.3661 143.721 17.541C143.721 17.9126 143.908 18.1967 144.28 18.3934C144.675 18.5902 145.366 18.6885 146.352 18.6885H152.601C154.245 18.6885 155.527 19.1694 156.448 20.1311C157.391 21.071 157.862 22.3934 157.862 24.0984C157.862 25.847 157.128 27.2678 155.659 28.3607C154.212 29.4536 152.041 30 149.147 30ZM149.312 16.5574C150.035 16.5574 150.594 16.2076 150.989 15.5082C151.406 14.8087 151.614 13.5737 151.614 11.8033C151.614 10.0328 151.406 8.79778 150.989 8.09833C150.594 7.39887 150.035 7.04914 149.312 7.04914C148.588 7.04914 148.018 7.39887 147.602 8.09833C147.207 8.79778 147.01 10.0328 147.01 11.8033C147.01 13.5737 147.207 14.8087 147.602 15.5082C148.018 16.2076 148.588 16.5574 149.312 16.5574Z" fill="#FFA500"/>
<path d="M119.548 22.459L121.522 21.9672V7.54096L119.548 7.04916V6.55736H122.508C123.802 6.55736 124.821 6.97266 125.567 7.80326C125.852 8.13113 126.093 8.5355 126.29 9.01638C126.597 8.44807 126.959 7.95627 127.375 7.54096C128.362 6.55736 129.59 6.06555 131.059 6.06555C132.286 6.06555 133.383 6.32785 134.347 6.85244C135.334 7.35517 136.101 8.02184 136.649 8.85244C137.197 9.68305 137.471 10.5574 137.471 11.4754V21.9672L139.445 22.459V22.9508H135.169C133.196 22.9508 132.21 21.9672 132.21 20V11.4754C132.21 10.0983 131.957 9.04916 131.453 8.32785C130.971 7.58468 130.401 7.2131 129.743 7.2131C128.91 7.2131 128.165 7.65025 127.507 8.52457C127.222 8.89616 126.981 9.33332 126.783 9.83605V21.9672L128.757 22.459V22.9508H119.548V22.459Z" fill="#FFA500"/>
<path d="M110.025 23.4426C107.219 23.4426 105.038 22.6776 103.481 21.1476C101.924 19.5956 101.146 17.4645 101.146 14.7541C101.146 12.9836 101.486 11.4426 102.165 10.1311C102.845 8.81966 103.788 7.81419 104.994 7.11474C106.221 6.41528 107.625 6.06555 109.203 6.06555C110.782 6.06555 112.163 6.36063 113.347 6.9508C114.553 7.54096 115.473 8.33878 116.109 9.34425C116.767 10.3279 117.096 11.4208 117.096 12.6229C117.096 13.1694 117.041 13.6393 116.931 14.0328L116.767 14.5902C115.824 14.7869 114.805 14.9508 113.709 15.082C111.407 15.4098 109.083 15.5738 106.737 15.5738C106.737 18.1093 107.087 19.9235 107.789 21.0164C108.491 22.0874 109.455 22.623 110.683 22.623C111.538 22.623 112.327 22.4262 113.051 22.0328C113.796 21.6175 114.377 21.082 114.794 20.4262C115.232 19.7486 115.452 19.0601 115.452 18.3607H116.274C116.274 19.235 116.011 20.0656 115.484 20.8525C114.958 21.6394 114.224 22.2732 113.281 22.7541C112.338 23.2131 111.253 23.4426 110.025 23.4426ZM106.737 14.7541C108.14 14.7541 109.28 14.6994 110.157 14.5902C110.53 14.5683 110.924 14.5137 111.341 14.4262C111.363 14.3169 111.418 14.0765 111.505 13.7049C111.615 13.1585 111.67 12.5792 111.67 11.9672C111.67 10.153 111.428 8.83059 110.946 7.99998C110.464 7.14752 109.883 6.72129 109.203 6.72129C107.559 6.72129 106.737 9.39889 106.737 14.7541Z" fill="#FFA500"/>
<path d="M87.6468 23.4426C85.6956 23.4426 84.1938 23.0273 83.1414 22.1967C82.089 21.3661 81.5629 20.306 81.5629 19.0164C81.5629 18.1639 81.7492 17.3224 82.1219 16.4918C82.2754 16.0984 82.4727 15.7377 82.7139 15.4098C83.6128 15.1913 84.5884 14.9945 85.6408 14.8197C88.0086 14.4262 90.1024 14.1858 91.9221 14.0984V13.1147C91.9221 10.6885 91.6261 9.01638 91.0341 8.09834C90.4422 7.18031 89.5323 6.72129 88.3046 6.72129C87.8442 6.72129 87.4495 6.77594 87.1207 6.88523L86.6603 7.04916V11.9672L86.2327 12.0656C85.8819 12.1093 85.586 12.1311 85.3448 12.1311C84.5994 12.1311 83.9965 11.9126 83.536 11.4754C83.0976 11.0164 82.8783 10.4153 82.8783 9.67212C82.8783 8.66665 83.3826 7.81419 84.3911 7.11474C85.4215 6.41528 86.9453 6.06555 88.9623 6.06555C90.6724 6.06555 92.1413 6.37156 93.3691 6.98359C94.6188 7.57375 95.5615 8.40436 96.1973 9.4754C96.855 10.5246 97.1839 11.7377 97.1839 13.1147V21.9672L99.1571 22.459V22.9508H96.1973C94.8818 22.9508 93.8624 22.5465 93.1389 21.7377C92.8319 21.4098 92.5908 20.9945 92.4154 20.4918C92.1084 21.0383 91.7467 21.5301 91.3301 21.9672C90.3435 22.9508 89.1158 23.4426 87.6468 23.4426ZM88.9623 22.2951C89.7735 22.2951 90.508 21.8579 91.1657 20.9836C91.4068 20.6557 91.659 20.2186 91.9221 19.6721V14.918C90.9136 14.918 89.9489 14.9727 89.0281 15.082C88.3484 15.1694 87.888 15.224 87.6468 15.2459C87.5372 15.4863 87.4276 15.8142 87.318 16.2295C87.0987 17.0601 86.9891 17.8798 86.9891 18.6885C86.9891 19.9126 87.1755 20.8197 87.5482 21.4098C87.9209 22 88.3923 22.2951 88.9623 22.2951Z" fill="#FFA500"/>
<path d="M59.3636 22.4591L61.3368 21.9673V0.98361L59.3636 0.491804V0H63.6389C65.6121 0 66.5987 0.983609 66.5987 2.95083V8.19674C66.9275 7.75958 67.2673 7.40985 67.6181 7.14756C68.5609 6.42624 69.6461 6.06559 70.8739 6.06559C72.1016 6.06559 73.1978 6.32788 74.1625 6.85247C75.1491 7.35521 75.9165 8.02188 76.4646 8.85248C77.0127 9.68308 77.2867 10.5574 77.2867 11.4754V21.9673L79.2599 22.4591V22.9509H74.9847C73.0115 22.9509 72.0249 21.9673 72.0249 20V11.4754C72.0249 10.0984 71.7728 9.0492 71.2685 8.32789C70.7862 7.58472 70.2162 7.21313 69.5584 7.21313C68.7253 7.21313 67.9799 7.65029 67.3222 8.52461C67.0371 8.89619 66.796 9.33335 66.5987 9.83609V21.9673L68.5718 22.4591V22.9509H59.3636V22.4591Z" fill="#FFA500"/>
<path d="M53.1087 23.4426C51.6617 23.4426 50.4011 23.1803 49.3268 22.6557C48.2744 22.1311 47.4632 21.4098 46.8932 20.4918C46.3231 19.5738 46.0381 18.5355 46.0381 17.377V7.37701H43.7361V6.55734H46.0381V4.91799C46.0381 2.95077 47.0247 1.96716 48.9979 1.96716H51.2999V6.55734H55.904V7.37701H51.2999V17.377C51.2999 19.388 51.5082 20.765 51.9248 21.5082C52.3413 22.2514 52.9552 22.6229 53.7664 22.6229C54.5557 22.6229 55.2463 22.2404 55.8383 21.4754C56.4302 20.7104 56.7262 19.6721 56.7262 18.3606H57.5484C57.5484 19.9781 57.1428 21.235 56.3316 22.1311C55.5204 23.0055 54.4461 23.4426 53.1087 23.4426Z" fill="#FFA500"/>
<path d="M33.3822 22.4591L35.3554 21.9673V7.541L33.3822 7.0492V6.55739H37.6574C39.6306 6.55739 40.6172 7.541 40.6172 9.50822V21.9673L42.5904 22.4591V22.9509H33.3822V22.4591ZM37.6574 4.59017C36.9997 4.59017 36.4516 4.37159 36.0131 3.93443C35.5746 3.49728 35.3554 2.95083 35.3554 2.29509C35.3554 1.63935 35.5746 1.0929 36.0131 0.65574C36.4516 0.21858 36.9997 0 37.6574 0C38.3152 0 38.8633 0.21858 39.3017 0.65574C39.7402 1.0929 39.9595 1.63935 39.9595 2.29509C39.9595 2.95083 39.7402 3.49728 39.3017 3.93443C38.8633 4.37159 38.3152 4.59017 37.6574 4.59017Z" fill="#FFA500"/>
<path d="M1.80875 0.819675L0 0.491804V0H3.94636C5.10835 0 6.06205 0.262295 6.80748 0.786886C7.5529 1.31148 8.07908 1.97815 8.38602 2.78689L13.3519 15.4099L16.2459 6.95083L13.8123 0.819675L12.0035 0.491804V0H15.9499C17.1119 0 18.0546 0.262295 18.7781 0.786886C19.5016 1.28962 20.0388 1.95629 20.3895 2.78689L25.3554 15.4099L30.091 1.47541L27.6245 0.491804V0H31.6385L31.4673 0.491804L31.0776 1.47541L23.6782 23.2787H22.6916L16.772 8.2951L11.6747 23.2787H10.6881L1.80875 0.819675Z" fill="url(#paint0_linear_1066_1887)"/>
<defs>
<linearGradient id="paint0_linear_1066_1887" x1="33.5441" y1="-0.273161" x2="0.724287" y2="23.0447" gradientUnits="userSpaceOnUse">
<stop stop-color="#FFA500"/>
<stop offset="0.35" stop-color="#FFC570"/>
<stop offset="0.635" stop-color="#FFA500"/>
<stop offset="1" stop-color="#FFC570"/>
</linearGradient>
</defs>
</svg>
