<svg width="20" height="20" viewBox="0 0 20 20" fill="none"
  xmlns="http://www.w3.org/2000/svg">
  <path fill-rule="evenodd" clip-rule="evenodd" d="M19 10C19 14.9706 14.9706 19 10 19C5.02944 19 1 14.9706 1 10C1 5.02944 5.02944 1 10 1C14.9706 1 19 5.02944 19 10ZM20 10C20 15.5228 15.5228 20 10 20C4.47715 20 0 15.5228 0 10C0 4.47715 4.47715 0 10 0C15.5228 0 20 4.47715 20 10ZM10.7031 12.8125L10.8125 4.6875H9.28125L9.39062 12.8125H10.7031ZM9.04688 15.0781C9.03125 15.6406 9.5 16.0938 10.0469 16.0938C10.5938 16.0938 11.0469 15.6406 11.0469 15.0781C11.0469 14.5312 10.5938 14.0781 10.0469 14.0781C9.5 14.0781 9.03125 14.5312 9.04688 15.0781Z" fill="#EC5C53"/>
</svg>
