<svg width="18" height="12" viewBox="0 0 20 19" fill="none"
  xmlns="http://www.w3.org/2000/svg">
  <path d="M10 18.9984L8.55 17.6984C6.86667 16.1818 5.475 14.8734 4.375 13.7734C3.275 12.6734 2.4 11.6859 1.75 10.8109C1.1 9.93594 0.645833 9.13177 0.3875 8.39844C0.129167 7.6651 0 6.9151 0 6.14844C0 4.58177 0.525 3.27344 1.575 2.22344C2.625 1.17344 3.93333 0.648438 5.5 0.648438C6.36667 0.648438 7.19167 0.831771 7.975 1.19844C8.75833 1.5651 9.43333 2.08177 10 2.74844C10.5667 2.08177 11.2417 1.5651 12.025 1.19844C12.8083 0.831771 13.6333 0.648438 14.5 0.648438C16.0667 0.648438 17.375 1.17344 18.425 2.22344C19.475 3.27344 20 4.58177 20 6.14844C20 6.9151 19.8708 7.6651 19.6125 8.39844C19.3542 9.13177 18.9 9.93594 18.25 10.8109C17.6 11.6859 16.725 12.6734 15.625 13.7734C14.525 14.8734 13.1333 16.1818 11.45 17.6984L10 18.9984ZM10 16.2984C11.6 14.8651 12.9167 13.6359 13.95 12.6109C14.9833 11.5859 15.8 10.6943 16.4 9.93594C17 9.1776 17.4167 8.5026 17.65 7.91094C17.8833 7.31927 18 6.73177 18 6.14844C18 5.14844 17.6667 4.3151 17 3.64844C16.3333 2.98177 15.5 2.64844 14.5 2.64844C13.7167 2.64844 12.9917 2.86927 12.325 3.31094C11.6583 3.7526 11.2 4.3151 10.95 4.99844H9.05C8.8 4.3151 8.34167 3.7526 7.675 3.31094C7.00833 2.86927 6.28333 2.64844 5.5 2.64844C4.5 2.64844 3.66667 2.98177 3 3.64844C2.33333 4.3151 2 5.14844 2 6.14844C2 6.73177 2.11667 7.31927 2.35 7.91094C2.58333 8.5026 3 9.1776 3.6 9.93594C4.2 10.6943 5.01667 11.5859 6.05 12.6109C7.08333 13.6359 8.4 14.8651 10 16.2984Z" fill="black"/>
</svg>
