<svg width="24" height="24" viewBox="0 0 24 24" fill="none"
  xmlns="http://www.w3.org/2000/svg">
  <path d="M5 6.46154C5 8.17525 5.7375 9.81876 7.05025 11.0305C8.36301 12.2423 10.1435 12.9231 12 12.9231C13.8565 12.9231 15.637 12.2423 16.9497 11.0305C18.2625 9.81876 19 8.17525 19 6.46154C19 4.74783 18.2625 3.10431 16.9497 1.89254C15.637 0.680767 13.8565 0 12 0C10.1435 0 8.36301 0.680767 7.05025 1.89254C5.7375 3.10431 5 4.74783 5 6.46154ZM22 24H1C0.734784 24 0.48043 23.9027 0.292893 23.7296C0.105357 23.5565 0 23.3217 0 23.0769V20.3077C0 19.0836 0.526784 17.9097 1.46447 17.0441C2.40215 16.1786 3.67392 15.6923 5 15.6923H19C20.3261 15.6923 21.5979 16.1786 22.5355 17.0441C23.4732 17.9097 24 19.0836 24 20.3077V23.0769C24 23.3217 23.8946 23.5565 23.7071 23.7296C23.5196 23.9027 23.2652 24 23 24H22Z" fill="#023E73"/>
</svg>
