<svg width="56" height="56" viewBox="0 0 56 56" fill="none"
  xmlns="http://www.w3.org/2000/svg">
  <path d="M19.75 44.5H34.875C35.6542 44.5 36.376 44.3052 37.0406 43.9156C37.7052 43.526 38.175 42.9875 38.45 42.3L44.225 28.825C44.3167 28.5958 44.3854 28.3667 44.4313 28.1375C44.4771 27.9083 44.5 27.6792 44.5 27.45V25.25C44.5 24.4708 44.2365 23.8177 43.7094 23.2906C43.1823 22.7635 42.5292 22.5 41.75 22.5H29.1L30.75 13.15C30.8417 12.6917 30.8188 12.2563 30.6813 11.8438C30.5438 11.4313 30.3146 11.0646 29.9938 10.7438L28 8.75L15.35 22.5C14.9833 22.8667 14.7083 23.2792 14.525 23.7375C14.3417 24.1958 14.25 24.7 14.25 25.25V39C14.25 40.5125 14.7885 41.8073 15.8656 42.8844C16.9427 43.9615 18.2375 44.5 19.75 44.5ZM28 55.5C24.1958 55.5 20.6208 54.7781 17.275 53.3344C13.9292 51.8906 11.0188 49.9313 8.54375 47.4562C6.06875 44.9813 4.10938 42.0708 2.66563 38.725C1.22188 35.3792 0.5 31.8042 0.5 28C0.5 24.1958 1.22188 20.6208 2.66563 17.275C4.10938 13.9292 6.06875 11.0188 8.54375 8.54375C11.0188 6.06875 13.9292 4.10938 17.275 2.66563C20.6208 1.22188 24.1958 0.5 28 0.5C31.8042 0.5 35.3792 1.22188 38.725 2.66563C42.0708 4.10938 44.9813 6.06875 47.4562 8.54375C49.9313 11.0188 51.8906 13.9292 53.3344 17.275C54.7781 20.6208 55.5 24.1958 55.5 28C55.5 31.8042 54.7781 35.3792 53.3344 38.725C51.8906 42.0708 49.9313 44.9813 47.4562 47.4562C44.9813 49.9313 42.0708 51.8906 38.725 53.3344C35.3792 54.7781 31.8042 55.5 28 55.5ZM28 50C34.1417 50 39.3438 47.8688 43.6063 43.6063C47.8688 39.3438 50 34.1417 50 28C50 21.8583 47.8688 16.6562 43.6063 12.3938C39.3438 8.13125 34.1417 6 28 6C21.8583 6 16.6562 8.13125 12.3938 12.3938C8.13125 16.6562 6 21.8583 6 28C6 34.1417 8.13125 39.3438 12.3938 43.6063C16.6562 47.8688 21.8583 50 28 50Z" fill="#023E73"/>
</svg>
