<svg width="20" height="20" viewBox="0 0 20 20" fill="none" xmlns="http://www.w3.org/2000/svg">
<path d="M8.5 13.2916H11.5C11.7243 13.2916 11.9123 13.2158 12.064 13.064C12.2158 12.9123 12.2916 12.7243 12.2916 12.5V11.2084H11.2084V12.2084H8.79165V7.79165H11.2084V8.79165H12.2916V7.49973C12.2916 7.27534 12.2158 7.08735 12.064 6.93575C11.9123 6.78415 11.7243 6.70835 11.5 6.70835H8.5C8.27569 6.70835 8.08768 6.78422 7.93596 6.93596C7.78422 7.08768 7.70835 7.27569 7.70835 7.5V12.5C7.70835 12.7243 7.78422 12.9123 7.93596 13.064C8.08768 13.2158 8.27569 13.2916 8.5 13.2916ZM10.0071 17.5833C8.96392 17.5833 7.98142 17.386 7.05965 16.9912C6.13785 16.5965 5.33103 16.0534 4.63919 15.3619C3.94733 14.6703 3.40394 13.8642 3.00904 12.9434C2.61414 12.0226 2.41669 11.0388 2.41669 9.99185C2.41669 8.94494 2.61405 7.96406 3.00877 7.04923C3.40349 6.13438 3.94662 5.33104 4.63815 4.63919C5.32969 3.94733 6.13585 3.40394 7.05662 3.00904C7.9774 2.61414 8.96124 2.41669 10.0081 2.41669C11.0551 2.41669 12.0359 2.61405 12.9508 3.00877C13.8656 3.40349 14.669 3.94662 15.3608 4.63815C16.0527 5.32969 16.5961 6.13422 16.991 7.05175C17.3859 7.96928 17.5833 8.94965 17.5833 9.99285C17.5833 11.0361 17.386 12.0186 16.9912 12.9404C16.5965 13.8621 16.0534 14.669 15.3619 15.3608C14.6703 16.0527 13.8658 16.5961 12.9482 16.991C12.0307 17.3859 11.0504 17.5833 10.0071 17.5833ZM10 16.5C11.8056 16.5 13.3403 15.8681 14.6042 14.6042C15.8681 13.3403 16.5 11.8056 16.5 10C16.5 8.19444 15.8681 6.65972 14.6042 5.39583C13.3403 4.13194 11.8056 3.5 10 3.5C8.19444 3.5 6.65972 4.13194 5.39583 5.39583C4.13194 6.65972 3.5 8.19444 3.5 10C3.5 11.8056 4.13194 13.3403 5.39583 14.6042C6.65972 15.8681 8.19444 16.5 10 16.5Z" fill="black"/>
</svg>
