<svg width="current" height="current" viewBox="0 0 24 24" fill="none" xmlns="http://www.w3.org/2000/svg">
<path d="M3.58692 13.7789C5.36636 15.5479 8.46965 18 12.0003 18C15.531 18 18.634 15.5479 20.4134 13.7789L20.4142 13.778C20.8833 13.3117 21.1182 13.0782 21.2676 12.6202C21.3742 12.2934 21.3742 11.7066 21.2676 11.3798C21.1182 10.9218 20.8833 10.6883 20.4142 10.2219L20.4134 10.2211C18.634 8.45208 15.531 6 12.0003 6C8.46965 6 5.36636 8.45208 3.58692 10.2211C3.11726 10.688 2.88241 10.9215 2.73292 11.3798C2.6263 11.7066 2.6263 12.2934 2.73292 12.6202C2.8824 13.0785 3.11724 13.3119 3.58686 13.7788L3.58692 13.7789Z" stroke="#333333" stroke-width="2" stroke-linecap="round" stroke-linejoin="round"/>
</svg>
