<svg width="20" height="20" viewBox="0 0 20 20" fill="none" xmlns="http://www.w3.org/2000/svg">
<path d="M2.98912 11.4824C4.47198 12.9566 7.05806 15 10.0003 15C12.9425 15 15.5283 12.9566 17.0112 11.4824L17.0119 11.4817C17.4028 11.0931 17.5985 10.8985 17.723 10.5169C17.8118 10.2445 17.8118 9.75549 17.723 9.48313C17.5985 9.10146 17.4028 8.90689 17.0118 8.51821L17.0112 8.51759C15.5283 7.0434 12.9425 5 10.0003 5C7.05806 5 4.47198 7.0434 2.98912 8.51759C2.59774 8.90669 2.40203 9.10125 2.27745 9.48313C2.1886 9.75549 2.1886 10.2445 2.27745 10.5169C2.40202 10.8987 2.59772 11.0933 2.98906 11.4823L2.98912 11.4824Z" stroke="#BAB8B6" stroke-width="1.4" stroke-linecap="round" stroke-linejoin="round"/>
</svg>
