<svg width="20" height="20" viewBox="0 0 20 20" fill="none" xmlns="http://www.w3.org/2000/svg">
<path d="M3.3333 3.33334L16.6666 16.6667M13.75 13.9633C12.6228 14.5705 11.3488 15 9.99997 15C7.05776 15 4.47193 12.9566 2.98907 11.4824C2.59765 11.0933 2.40197 10.8987 2.2774 10.5168C2.18855 10.2445 2.18853 9.75533 2.2774 9.48297C2.40201 9.10108 2.59809 8.90617 2.99029 8.51635C3.73769 7.77347 4.76507 6.88629 5.97689 6.18892M16.25 12.1947C16.5275 11.9506 16.7817 11.7104 17.0098 11.4837C17.402 11.0939 17.598 10.8989 17.7226 10.517C17.8115 10.2447 17.8118 9.75559 17.723 9.48322C17.5984 9.10132 17.4025 8.90673 17.0111 8.5176C15.5283 7.04341 12.9422 5.00001 9.99997 5.00001C9.71872 5.00001 9.44072 5.01868 9.16664 5.05374M11.1024 11.25C10.8086 11.5093 10.4227 11.6666 9.99997 11.6666C9.0795 11.6666 8.3333 10.9204 8.3333 9.99996C8.3333 9.55037 8.51132 9.14237 8.8007 8.84258" stroke="#BAB8B6" stroke-width="1.4" stroke-linecap="round" stroke-linejoin="round"/>
</svg>
