<svg width="20" height="20" viewBox="0 0 20 20" fill="none" xmlns="http://www.w3.org/2000/svg">
<path d="M10.0415 12.875H10.7415C10.7415 12.4884 10.4281 12.175 10.0415 12.175V12.875ZM10.0415 12.9583L10.0413 13.6583C10.227 13.6583 10.4051 13.5846 10.5364 13.4533C10.6677 13.322 10.7415 13.144 10.7415 12.9583H10.0415ZM9.9585 12.9583H9.2585C9.2585 13.3448 9.57179 13.6582 9.95832 13.6583L9.9585 12.9583ZM9.9585 12.875V12.175C9.5719 12.175 9.2585 12.4884 9.2585 12.875H9.9585ZM10.7 7.04163C10.7 6.65503 10.3866 6.34163 10 6.34163C9.6134 6.34163 9.3 6.65503 9.3 7.04163H10.7ZM9.3 10.375C9.3 10.7616 9.6134 11.075 10 11.075C10.3866 11.075 10.7 10.7616 10.7 10.375H9.3ZM10 16.8C6.24446 16.8 3.2 13.7555 3.2 10H1.8C1.8 14.5287 5.47126 18.2 10 18.2V16.8ZM3.2 10C3.2 6.24446 6.24446 3.2 10 3.2V1.8C5.47126 1.8 1.8 5.47126 1.8 10H3.2ZM10 3.2C13.7555 3.2 16.8 6.24446 16.8 10H18.2C18.2 5.47126 14.5287 1.8 10 1.8V3.2ZM16.8 10C16.8 13.7555 13.7555 16.8 10 16.8V18.2C14.5287 18.2 18.2 14.5287 18.2 10H16.8ZM9.3415 12.875V12.9583H10.7415V12.875H9.3415ZM10.0417 12.2583L9.95867 12.2583L9.95832 13.6583L10.0413 13.6583L10.0417 12.2583ZM10.6585 12.9583V12.875H9.2585V12.9583H10.6585ZM9.9585 13.575H10.0415V12.175H9.9585V13.575ZM9.3 7.04163V10.375H10.7V7.04163H9.3Z" fill="#333333"/>
</svg>
