<svg width="14" height="14" viewBox="0 0 14 14" fill="none" xmlns="http://www.w3.org/2000/svg">
<g clip-path="url(#clip0_5225_9900)">
<path d="M10.0834 7.88341L7.88338 12.8334C7.44577 12.8334 7.02609 12.6595 6.71666 12.3501C6.40722 12.0407 6.23339 11.621 6.23339 11.1834L6.23339 8.9834L3.12041 8.9834C2.96096 8.9852 2.80302 8.95232 2.65754 8.88703C2.51207 8.82174 2.38252 8.7256 2.27789 8.60527C2.17326 8.48494 2.09603 8.3433 2.05158 8.19016C2.00712 8.03703 1.99648 7.87606 2.02041 7.71841L2.77941 2.76844C2.81919 2.50614 2.95242 2.26706 3.15456 2.09524C3.3567 1.92342 3.61412 1.83044 3.8794 1.83344L10.0834 1.83344M10.0834 7.88341L10.0834 1.83344M10.0834 7.88341L11.7334 7.88341C12.0251 7.88341 12.3049 7.76751 12.5112 7.56122C12.7175 7.35494 12.8333 7.07515 12.8333 6.78341L12.8333 2.93344C12.8333 2.6417 12.7175 2.36191 12.5112 2.15562C12.3049 1.94934 12.0251 1.83344 11.7334 1.83344L10.0834 1.83344" stroke="#737373" stroke-linecap="round" stroke-linejoin="round"/>
</g>
<defs>
<clipPath id="clip0_5225_9900">
<rect width="14" height="14" fill="white" transform="translate(14 14) rotate(-180)"/>
</clipPath>
</defs>
</svg>
