<svg width="14" height="14" viewBox="0 0 14 14" fill="current" xmlns="http://www.w3.org/2000/svg">
<path d="M3.91667 6.11659L6.11666 1.16663C6.55426 1.16663 6.97394 1.34046 7.28337 1.6499C7.59281 1.95933 7.76664 2.37901 7.76664 2.81662V5.0166H10.8796C11.0391 5.0148 11.197 5.04768 11.3425 5.11297C11.488 5.17826 11.6175 5.2744 11.7221 5.39473C11.8268 5.51506 11.904 5.6567 11.9485 5.80983C11.9929 5.96297 12.0035 6.12394 11.9796 6.28159L11.2206 11.2316C11.1808 11.4939 11.0476 11.7329 10.8455 11.9048C10.6433 12.0766 10.3859 12.1696 10.1206 12.1666H3.91667M3.91667 6.11659V12.1666M3.91667 6.11659H2.26668C1.97494 6.11659 1.69516 6.23249 1.48887 6.43878C1.28258 6.64506 1.16669 6.92485 1.16669 7.21659V11.0666C1.16669 11.3583 1.28258 11.6381 1.48887 11.8444C1.69516 12.0507 1.97494 12.1666 2.26668 12.1666H3.91667" stroke="current" stroke-linecap="round" stroke-linejoin="round"/>
</svg>
