<svg width="66" height="66" viewBox="0 0 66 66" fill="none"
  xmlns="http://www.w3.org/2000/svg">
  <path d="M5.5 63.25V57.75H60.5V63.25H5.5ZM11 55V38.5C9.4875 36.025 8.31875 33.401 7.49375 30.6281C6.66875 27.8552 6.25625 25.025 6.25625 22.1375C6.25625 19.3417 6.61146 16.5917 7.32188 13.8875C8.03229 11.1833 8.86875 8.525 9.83125 5.9125C10.1979 4.95 10.7938 4.18229 11.6188 3.60938C12.4438 3.03646 13.3604 2.75 14.3688 2.75C15.7896 2.75 17.0042 3.23125 18.0125 4.19375C19.0208 5.15625 19.4333 6.30208 19.25 7.63125L18.4938 13.8875C18.2188 16.0875 18.4135 18.1729 19.0781 20.1438C19.7427 22.1146 20.7396 23.8448 22.0688 25.3344C23.3979 26.824 25.0021 28.0156 26.8813 28.9094C28.7604 29.8031 30.8 30.25 33 30.25C35.75 30.25 38.5115 30.5365 41.2844 31.1094C44.0573 31.6823 46.475 32.4958 48.5375 33.55C50.6 34.6042 52.1927 35.9448 53.3156 37.5719C54.4385 39.199 55 41.2042 55 43.5875V55H11ZM16.5 49.5H49.5V43.5875C49.5 42.4875 49.225 41.5135 48.675 40.6656C48.125 39.8177 47.3458 39.1417 46.3375 38.6375C44.4583 37.7208 42.2812 37.0104 39.8063 36.5063C37.3313 36.0021 35.0625 35.75 33 35.75C29.975 35.75 27.1677 35.1313 24.5781 33.8938C21.9885 32.6562 19.7885 30.9948 17.9781 28.9094C16.1677 26.824 14.8042 24.4177 13.8875 21.6906C12.9708 18.9635 12.6958 16.1333 13.0625 13.2C12.6042 14.575 12.2719 16.0417 12.0656 17.6C11.8594 19.1583 11.7562 20.6708 11.7562 22.1375C11.7562 24.7958 12.226 27.351 13.1656 29.8031C14.1052 32.2552 15.2167 34.65 16.5 36.9875V49.5ZM33 27.5C29.975 27.5 27.3854 26.4229 25.2313 24.2688C23.0771 22.1146 22 19.525 22 16.5C22 13.475 23.0771 10.8854 25.2313 8.73125C27.3854 6.57708 29.975 5.5 33 5.5C36.025 5.5 38.6146 6.57708 40.7687 8.73125C42.9229 10.8854 44 13.475 44 16.5C44 19.525 42.9229 22.1146 40.7687 24.2688C38.6146 26.4229 36.025 27.5 33 27.5ZM33 22C34.5125 22 35.8073 21.4615 36.8844 20.3844C37.9615 19.3073 38.5 18.0125 38.5 16.5C38.5 14.9875 37.9615 13.6927 36.8844 12.6156C35.8073 11.5385 34.5125 11 33 11C31.4875 11 30.1927 11.5385 29.1156 12.6156C28.0385 13.6927 27.5 14.9875 27.5 16.5C27.5 18.0125 28.0385 19.3073 29.1156 20.3844C30.1927 21.4615 31.4875 22 33 22ZM22 55V52.4562C22 49.3854 23.0656 46.75 25.1969 44.55C27.3281 42.35 29.9292 41.25 33 41.25H44V46.75H33C31.4417 46.75 30.1354 47.3115 29.0813 48.4344C28.0271 49.5573 27.5 50.8979 27.5 52.4562V55H22Z" fill="#023E73"/>
</svg>
