<svg width="62" height="44" viewBox="0 0 62 44" fill="none"
  xmlns="http://www.w3.org/2000/svg">
  <path d="M0.75 44V33C0.75 31.4417 1.28854 30.1354 2.36563 29.0813C3.44271 28.0271 4.7375 27.5 6.25 27.5H15.2563C16.1729 27.5 17.0438 27.7292 17.8688 28.1875C18.6938 28.6458 19.3583 29.2646 19.8625 30.0438C21.1917 31.8313 22.8302 33.2292 24.7781 34.2375C26.726 35.2458 28.8 35.75 31 35.75C33.2458 35.75 35.3427 35.2458 37.2906 34.2375C39.2385 33.2292 40.8542 31.8313 42.1375 30.0438C42.7333 29.2646 43.4323 28.6458 44.2344 28.1875C45.0365 27.7292 45.8729 27.5 46.7438 27.5H55.75C57.3083 27.5 58.6146 28.0271 59.6688 29.0813C60.7229 30.1354 61.25 31.4417 61.25 33V44H42V37.7438C40.3958 38.8896 38.6656 39.7604 36.8094 40.3563C34.9531 40.9521 33.0167 41.25 31 41.25C29.0292 41.25 27.1042 40.9406 25.225 40.3219C23.3458 39.7031 21.6042 38.8208 20 37.675V44H0.75ZM31 33C29.2583 33 27.6083 32.599 26.05 31.7969C24.4917 30.9948 23.1854 29.8833 22.1313 28.4625C21.3521 27.3167 20.3781 26.4115 19.2094 25.7469C18.0406 25.0823 16.7688 24.75 15.3938 24.75C16.4021 23.0542 18.5333 21.7135 21.7875 20.7281C25.0417 19.7427 28.1125 19.25 31 19.25C33.8875 19.25 36.9583 19.7427 40.2125 20.7281C43.4667 21.7135 45.5979 23.0542 46.6063 24.75C45.2771 24.75 44.0167 25.0823 42.825 25.7469C41.6333 26.4115 40.6479 27.3167 39.8688 28.4625C38.8604 29.9292 37.5771 31.0521 36.0188 31.8313C34.4604 32.6104 32.7875 33 31 33ZM9 24.75C6.70833 24.75 4.76042 23.9479 3.15625 22.3438C1.55208 20.7396 0.75 18.7917 0.75 16.5C0.75 14.1625 1.55208 12.2031 3.15625 10.6219C4.76042 9.04063 6.70833 8.25 9 8.25C11.3375 8.25 13.2969 9.04063 14.8781 10.6219C16.4594 12.2031 17.25 14.1625 17.25 16.5C17.25 18.7917 16.4594 20.7396 14.8781 22.3438C13.2969 23.9479 11.3375 24.75 9 24.75ZM53 24.75C50.7083 24.75 48.7604 23.9479 47.1563 22.3438C45.5521 20.7396 44.75 18.7917 44.75 16.5C44.75 14.1625 45.5521 12.2031 47.1563 10.6219C48.7604 9.04063 50.7083 8.25 53 8.25C55.3375 8.25 57.2969 9.04063 58.8781 10.6219C60.4594 12.2031 61.25 14.1625 61.25 16.5C61.25 18.7917 60.4594 20.7396 58.8781 22.3438C57.2969 23.9479 55.3375 24.75 53 24.75ZM31 16.5C28.7083 16.5 26.7604 15.6979 25.1563 14.0938C23.5521 12.4896 22.75 10.5417 22.75 8.25C22.75 5.9125 23.5521 3.95313 25.1563 2.37188C26.7604 0.790625 28.7083 0 31 0C33.3375 0 35.2969 0.790625 36.8781 2.37188C38.4594 3.95313 39.25 5.9125 39.25 8.25C39.25 10.5417 38.4594 12.4896 36.8781 14.0938C35.2969 15.6979 33.3375 16.5 31 16.5Z" fill="#023E73"/>
</svg>
