<svg width="24" height="24" viewBox="0 0 24 24" fill="none" xmlns="http://www.w3.org/2000/svg">
<path d="M13 7C13 6.44772 12.5523 6 12 6C11.4477 6 11 6.44772 11 7H13ZM12 12H11C11 12.5523 11.4477 13 12 13V12ZM17 13C17.5523 13 18 12.5523 18 12C18 11.4477 17.5523 11 17 11V13ZM20.3608 5.33719C20.7839 5.6922 21.4147 5.63701 21.7697 5.21394C22.1247 4.79086 22.0695 4.16011 21.6464 3.80511L20.3608 5.33719ZM18.5822 1.23396C18.1592 0.878954 17.5284 0.934138 17.1734 1.35721C16.8184 1.78029 16.8736 2.41104 17.2967 2.76604L18.5822 1.23396ZM6.70697 2.76617C7.13004 2.41116 7.18522 1.78041 6.83022 1.35733C6.47522 0.93426 5.84446 0.879076 5.42139 1.23408L6.70697 2.76617ZM2.35721 3.80523C1.93414 4.16023 1.87895 4.79099 2.23396 5.21406C2.58896 5.63713 3.21971 5.69232 3.64279 5.33732L2.35721 3.80523ZM11 7V12H13V7H11ZM12 13H17V11H12V13ZM12 19C8.13401 19 5 15.866 5 12H3C3 16.9706 7.02944 21 12 21V19ZM5 12C5 8.13401 8.13401 5 12 5V3C7.02944 3 3 7.02944 3 12H5ZM12 5C15.866 5 19 8.13401 19 12H21C21 7.02944 16.9706 3 12 3V5ZM19 12C19 15.866 15.866 19 12 19V21C16.9706 21 21 16.9706 21 12H19ZM21.6464 3.80511L18.5822 1.23396L17.2967 2.76604L20.3608 5.33719L21.6464 3.80511ZM5.42139 1.23408L2.35721 3.80523L3.64279 5.33732L6.70697 2.76617L5.42139 1.23408Z" fill="#333333"/>
</svg>
