<svg width="20" height="20" viewBox="0 0 20 20" fill="none" xmlns="http://www.w3.org/2000/svg">
<path d="M3.33337 5.96675C2.94677 5.96675 2.63337 6.28015 2.63337 6.66675C2.63337 7.05335 2.94677 7.36675 3.33337 7.36675V5.96675ZM16.6667 7.36675C17.0533 7.36675 17.3667 7.05335 17.3667 6.66675C17.3667 6.28015 17.0533 5.96675 16.6667 5.96675V7.36675ZM4.2432 16.4851L4.561 15.8614L4.2432 16.4851ZM3.51503 15.7568L2.89133 16.0746L3.51503 15.7568ZM16.4852 15.7568L15.8615 15.439L16.4852 15.7568ZM15.7565 16.4851L15.4387 15.8614L15.7565 16.4851ZM15.7565 3.51507L16.0743 2.89137L15.7565 3.51507ZM16.4852 4.24345L15.8615 4.56124L16.4852 4.24345ZM4.2432 3.51507L4.561 4.13878L4.2432 3.51507ZM3.51503 4.24345L4.13873 4.56124L3.51503 4.24345ZM12.995 10.4951C13.2684 10.2217 13.2684 9.77847 12.995 9.50511C12.7216 9.23174 12.2784 9.23174 12.0051 9.50511L12.995 10.4951ZM9.16671 13.3334L8.67173 13.8284C8.80301 13.9597 8.98106 14.0334 9.16671 14.0334C9.35236 14.0334 9.53041 13.9597 9.66168 13.8284L9.16671 13.3334ZM7.99502 11.1718C7.72165 10.8984 7.27843 10.8984 7.00507 11.1718C6.7317 11.4451 6.7317 11.8884 7.00507 12.1617L7.99502 11.1718ZM14.0334 1.66675C14.0334 1.28015 13.72 0.966748 13.3334 0.966748C12.9468 0.966748 12.6334 1.28015 12.6334 1.66675H14.0334ZM12.6334 3.33341C12.6334 3.72001 12.9468 4.03341 13.3334 4.03341C13.72 4.03341 14.0334 3.72001 14.0334 3.33341H12.6334ZM7.36671 1.66675C7.36671 1.28015 7.05331 0.966748 6.66671 0.966748C6.28011 0.966748 5.96671 1.28015 5.96671 1.66675H7.36671ZM5.96671 3.33341C5.96671 3.72001 6.28011 4.03341 6.66671 4.03341C7.05331 4.03341 7.36671 3.72001 7.36671 3.33341H5.96671ZM3.33337 7.36675H16.6667V5.96675H3.33337V7.36675ZM6.0002 4.03341H14.0002V2.63341H6.0002V4.03341ZM15.9667 6.00004V14H17.3667V6.00004H15.9667ZM14.0002 15.9667H6.0002V17.3667H14.0002V15.9667ZM4.03337 14V6.00004H2.63337V14H4.03337ZM6.0002 15.9667C5.52196 15.9667 5.20526 15.9662 4.96237 15.9464C4.7276 15.9272 4.6241 15.8935 4.561 15.8614L3.92541 17.1088C4.21883 17.2583 4.52712 17.3155 4.84837 17.3417C5.16148 17.3673 5.54503 17.3667 6.0002 17.3667V15.9667ZM2.63337 14C2.63337 14.4552 2.63283 14.8387 2.65841 15.1517C2.68465 15.473 2.74183 15.7812 2.89133 16.0746L4.13873 15.439C4.10657 15.3759 4.07293 15.2724 4.05376 15.0377C4.03392 14.7949 4.03337 14.4783 4.03337 14H2.63337ZM4.561 15.8614C4.37921 15.7687 4.23147 15.621 4.13873 15.439L2.89133 16.0746C3.11817 16.5198 3.47999 16.8818 3.92541 17.1088L4.561 15.8614ZM15.9667 14C15.9667 14.4784 15.9662 14.795 15.9464 15.0379C15.9273 15.2726 15.8936 15.3759 15.8615 15.439L17.1089 16.0746C17.2585 15.7811 17.3156 15.4728 17.3418 15.1516C17.3673 14.8386 17.3667 14.4551 17.3667 14H15.9667ZM14.0002 17.3667C14.4554 17.3667 14.8388 17.3673 15.1517 17.3417C15.4729 17.3154 15.781 17.2582 16.0743 17.1088L15.4387 15.8614C15.3756 15.8936 15.2722 15.9272 15.0377 15.9464C14.795 15.9662 14.4785 15.9667 14.0002 15.9667V17.3667ZM15.8615 15.439C15.769 15.6205 15.621 15.7685 15.4387 15.8614L16.0743 17.1088C16.5193 16.8821 16.8818 16.5202 17.1089 16.0746L15.8615 15.439ZM14.0002 4.03341C14.4785 4.03341 14.795 4.03396 15.0377 4.0538C15.2722 4.07296 15.3756 4.10659 15.4387 4.13878L16.0743 2.89137C15.781 2.7419 15.4729 2.6847 15.1517 2.65845C14.8388 2.63287 14.4554 2.63341 14.0002 2.63341V4.03341ZM17.3667 6.00004C17.3667 5.54495 17.3673 5.16149 17.3418 4.84851C17.3156 4.52735 17.2585 4.21912 17.1089 3.92566L15.8615 4.56124C15.8937 4.6243 15.9273 4.72766 15.9464 4.9623C15.9662 5.20513 15.9667 5.52171 15.9667 6.00004H17.3667ZM15.4387 4.13878C15.6209 4.2316 15.769 4.37964 15.8615 4.56124L17.1089 3.92566C16.8819 3.48005 16.5194 3.11812 16.0743 2.89137L15.4387 4.13878ZM6.0002 2.63341C5.54504 2.63341 5.16149 2.63287 4.84838 2.65845C4.52714 2.68468 4.21884 2.74186 3.92541 2.89137L4.561 4.13878C4.62409 4.10663 4.72758 4.07297 4.96235 4.0538C5.20525 4.03396 5.52195 4.03341 6.0002 4.03341V2.63341ZM4.03337 6.00004C4.03337 5.52178 4.03392 5.2052 4.05376 4.96241C4.07293 4.72781 4.10656 4.62438 4.13873 4.56124L2.89133 3.92566C2.74184 4.21904 2.68465 4.5272 2.65841 4.8484C2.63283 5.16143 2.63337 5.54488 2.63337 6.00004H4.03337ZM3.92541 2.89137C3.47991 3.11836 3.11813 3.48052 2.89133 3.92566L4.13873 4.56124C4.2315 4.37917 4.37929 4.23136 4.561 4.13878L3.92541 2.89137ZM12.0051 9.50511L8.67173 12.8384L9.66168 13.8284L12.995 10.4951L12.0051 9.50511ZM9.66168 12.8384L7.99502 11.1718L7.00507 12.1617L8.67173 13.8284L9.66168 12.8384ZM12.6334 1.66675V3.33341H14.0334V1.66675H12.6334ZM5.96671 1.66675V3.33341H7.36671V1.66675H5.96671Z" fill="#939393"/>
</svg>
