<svg width="24" height="24" viewBox="0 0 24 24" fill="none" xmlns="http://www.w3.org/2000/svg">
<path d="M7.51025 19.8018C8.83174 20.5639 10.365 21 12.0001 21C16.9707 21 21 16.9706 21 12C21 7.02944 16.9706 3 12 3C7.02944 3 3 7.02944 3 12C3 13.6351 3.43604 15.1684 4.19819 16.4899L4.19883 16.491C4.2737 16.6208 4.31123 16.6859 4.32816 16.7471C4.34396 16.8043 4.34918 16.8553 4.34513 16.9144C4.34084 16.9772 4.31914 17.0423 4.27629 17.1708L4.27468 17.1757L3.50586 19.4821L3.50526 19.4839C3.34281 19.9713 3.26154 20.2151 3.3194 20.3773C3.36981 20.5187 3.4812 20.63 3.62256 20.6804C3.785 20.7383 4.02953 20.6569 4.51807 20.494L6.82454 19.7252L6.82611 19.7247C6.9568 19.6811 7.02212 19.6594 7.08542 19.655C7.14458 19.651 7.19578 19.6561 7.25293 19.6719C7.31434 19.6888 7.3797 19.7265 7.51025 19.8018Z" stroke="#333333" stroke-width="2" stroke-linecap="round" stroke-linejoin="round"/>
<path fill-rule="evenodd" clip-rule="evenodd" d="M9 12C9 12.5523 8.55228 13 8 13C7.44772 13 7 12.5523 7 12C7 11.4477 7.44772 11 8 11C8.55228 11 9 11.4477 9 12ZM13 12C13 12.5523 12.5523 13 12 13C11.4477 13 11 12.5523 11 12C11 11.4477 11.4477 11 12 11C12.5523 11 13 11.4477 13 12ZM16 13C16.5523 13 17 12.5523 17 12C17 11.4477 16.5523 11 16 11C15.4477 11 15 11.4477 15 12C15 12.5523 15.4477 13 16 13Z" fill="#333333"/>
</svg>
