<svg width="24" height="24" viewBox="0 0 24 24" fill="none" xmlns="http://www.w3.org/2000/svg">
<g clip-path="url(#clip0_3200_6002)">
<path d="M8.26929 5.5271L10.3621 7.61987C10.5103 7.76811 10.5844 7.94251 10.5844 8.14307C10.5844 8.34362 10.5103 8.51802 10.3621 8.66626C10.2138 8.8145 10.0394 8.88862 9.83887 8.88862C9.63831 8.88862 9.46391 8.8145 9.31567 8.66626L8.49164 7.84223L8.47857 11.9885C8.8884 12.067 9.27426 12.2 9.63613 12.3875C9.99801 12.575 10.3272 12.8169 10.6237 13.1134C11.4259 13.9156 11.827 14.8748 11.827 15.991C11.827 17.1071 11.4259 18.0663 10.6237 18.8685C9.82143 19.6708 8.86224 20.0719 7.74609 20.0719C6.62995 20.0719 5.67076 19.6708 4.86853 18.8685C4.0663 18.0663 3.66519 17.1071 3.66519 15.991C3.66519 14.8748 4.0663 13.9156 4.86853 13.1134C5.15629 12.8256 5.4811 12.5837 5.84298 12.3875C6.20485 12.1913 6.59071 12.0627 7.00054 12.0016L7.00054 7.84223L6.17651 8.66626C6.02828 8.8145 5.85388 8.88862 5.65332 8.88862C5.45276 8.88862 5.27837 8.8145 5.13013 8.66626C4.98189 8.51802 4.90777 8.34362 4.90777 8.14307C4.90777 7.94251 4.98189 7.76811 5.13013 7.61987L7.2229 5.5271C7.37114 5.37886 7.54554 5.30474 7.74609 5.30474C7.94665 5.30474 8.12105 5.37886 8.26929 5.5271ZM5.91492 14.1598C5.40916 14.6655 5.15629 15.2759 5.15629 15.991C5.15629 16.706 5.40916 17.3164 5.91492 17.8221C6.42067 18.3279 7.03106 18.5808 7.74609 18.5808C8.46113 18.5808 9.07152 18.3279 9.57727 17.8221C10.083 17.3164 10.3359 16.706 10.3359 15.991C10.3359 15.2759 10.083 14.6655 9.57727 14.1598C9.07152 13.654 8.46113 13.4012 7.74609 13.4012C7.03106 13.4012 6.42067 13.654 5.91492 14.1598Z" fill="#535353"/>
<path d="M15.6818 17.3529H14.8636C14.6318 17.3529 14.4375 17.274 14.2807 17.1162C14.1239 16.9583 14.0455 16.7627 14.0455 16.5294C14.0455 16.2961 14.1239 16.1005 14.2807 15.9426C14.4375 15.7848 14.6318 15.7059 14.8636 15.7059H15.6818V13.9765C14.6045 13.7843 13.7216 13.2662 13.033 12.4221C12.3443 11.5779 12 10.6 12 9.48824C12 8.23922 12.4398 7.17892 13.3193 6.30735C14.1989 5.43578 15.2591 5 16.5 5C17.7409 5 18.8011 5.43578 19.6807 6.30735C20.5602 7.17892 21 8.23922 21 9.48824C21 10.6 20.6557 11.5779 19.967 12.4221C19.2784 13.2662 18.3955 13.7843 17.3182 13.9765V15.7059H18.1364C18.3682 15.7059 18.5625 15.7848 18.7193 15.9426C18.8761 16.1005 18.9545 16.2961 18.9545 16.5294C18.9545 16.7627 18.8761 16.9583 18.7193 17.1162C18.5625 17.274 18.3682 17.3529 18.1364 17.3529H17.3182V18.1765C17.3182 18.4098 17.2398 18.6054 17.083 18.7632C16.9261 18.9211 16.7318 19 16.5 19C16.2682 19 16.0739 18.9211 15.917 18.7632C15.7602 18.6054 15.6818 18.4098 15.6818 18.1765V17.3529ZM16.5 12.4118C17.2909 12.4118 17.9659 12.1304 18.525 11.5676C19.0841 11.0049 19.3636 10.3255 19.3636 9.52941C19.3636 8.73333 19.0841 8.05392 18.525 7.49118C17.9659 6.92843 17.2909 6.64706 16.5 6.64706C15.7091 6.64706 15.0341 6.92843 14.475 7.49118C13.9159 8.05392 13.6364 8.73333 13.6364 9.52941C13.6364 10.3255 13.9159 11.0049 14.475 11.5676C15.0341 12.1304 15.7091 12.4118 16.5 12.4118Z" fill="#535353"/>
</g>
<defs>
<clipPath id="clip0_3200_6002">
<rect width="24" height="24" fill="white"/>
</clipPath>
</defs>
</svg>
