<svg width="24" height="24" viewBox="0 0 24 24" fill="none"
  xmlns="http://www.w3.org/2000/svg">
  <path d="M12 3C10.22 3 8.47991 3.52784 6.99987 4.51677C5.51982 5.50571 4.36627 6.91131 3.68508 8.55585C3.0039 10.2004 2.82567 12.01 3.17293 13.7558C3.5202 15.5016 4.37737 17.1053 5.63604 18.364C6.89471 19.6226 8.49836 20.4798 10.2442 20.8271C11.99 21.1743 13.7996 20.9961 15.4442 20.3149C17.0887 19.6337 18.4943 18.4802 19.4832 17.0001C20.4722 15.5201 21 13.78 21 12" stroke="#535353" stroke-width="2" stroke-linecap="round"/>
  <path d="M13.6292 13.2506V13.25C13.6292 12.5345 13.7369 12.0106 13.9189 11.6687C14.098 11.3321 14.3452 11.1767 14.6394 11.1746C14.9338 11.1767 15.182 11.3322 15.3616 11.6688C15.544 12.0106 15.6517 12.5344 15.6496 13.2497L15.6496 13.2503C15.6517 13.9725 15.5449 14.4949 15.3632 14.8331C15.1846 15.1657 14.9369 15.3167 14.6394 15.3167C14.3418 15.3167 14.0931 15.1656 13.9141 14.833C13.732 14.4949 13.6252 13.9726 13.6292 13.2506ZM12.1812 13.25C12.1812 14.2977 12.4055 15.1338 12.8281 15.7106C13.2536 16.2913 13.8739 16.6 14.6394 16.6C15.4028 16.6 16.023 16.2936 16.4491 15.714C16.8724 15.1382 17.0976 14.3021 17.0976 13.25C17.0976 12.2042 16.8713 11.3682 16.4477 10.791C16.0213 10.21 15.4012 9.9 14.6394 9.9C13.8777 9.9 13.2576 10.21 12.8312 10.791C12.4076 11.3682 12.1812 12.2042 12.1812 13.25Z" fill="#535353" stroke="#535353" stroke-width="0.2"/>
  <path d="M11.3869 11.7822C11.3909 10.7167 10.5211 9.9 9.25284 9.9C8.00817 9.9 7.04308 10.687 7.02157 11.8416L7.01968 11.9434H7.12156H8.28849H8.3844L8.38841 11.8476C8.40578 11.4319 8.77053 11.1443 9.252 11.1484L9.25368 11.1484C9.49129 11.1464 9.68067 11.2212 9.80943 11.3436C9.93779 11.4657 10.0137 11.6424 10.0118 11.8601L10.0118 11.8617C10.0136 12.0813 9.92609 12.2627 9.77554 12.3908C9.62367 12.5201 9.40189 12.5996 9.13128 12.5996H8.58833H8.48833V12.6996V13.6694V13.7694H8.58833H9.13095C9.45867 13.7715 9.71324 13.8588 9.88324 13.9966C10.0514 14.1329 10.1433 14.3234 10.1415 14.551L10.1415 14.5525C10.1433 14.7786 10.0528 14.9657 9.89828 15.0984C9.74265 15.232 9.51685 15.3145 9.24475 15.3167C8.70848 15.3123 8.34878 15.0244 8.33168 14.6261L8.32757 14.5304H8.23177H7H6.89778L6.90002 14.6326C6.92584 15.8063 7.9092 16.6 9.23663 16.6C10.5963 16.6 11.6138 15.7961 11.6057 14.6393C11.6098 14.2236 11.4869 13.8601 11.2426 13.585C11.0551 13.3737 10.8005 13.2195 10.4884 13.1325C11.0299 12.9193 11.3904 12.4301 11.3869 11.7822ZM11.3869 11.7822C11.3869 11.782 11.3869 11.7818 11.3869 11.7817L11.2869 11.7823L11.3869 11.7827C11.3869 11.7825 11.3869 11.7823 11.3869 11.7822ZM7.12156 11.8434V11.7434H7.12597C7.12366 11.7764 7.12218 11.8098 7.12156 11.8434ZM7.12156 11.8434L7.22154 11.8453C7.22155 11.8447 7.22156 11.844 7.22157 11.8434H7.12156ZM7 14.6304H7.10003C7.10001 14.6296 7.09999 14.6289 7.09998 14.6282L7 14.6304ZM7 14.6304V14.7304H7.00471C7.00231 14.6974 7.00074 14.664 7 14.6304Z" fill="#535353" stroke="#535353" stroke-width="0.2"/>
  <path d="M15 6H21M18 9L18 3" stroke="#535353" stroke-width="2" stroke-linecap="round" stroke-linejoin="round"/>
</svg>
