<svg width="24" height="24" viewBox="0 0 24 24" fill="none" xmlns="http://www.w3.org/2000/svg">
<path fill-rule="evenodd" clip-rule="evenodd" d="M7.75344 5.73871C8.87782 4.62669 10.4052 4 12 4C13.5949 4 15.1222 4.62669 16.2466 5.73872C17.3706 6.85038 18 8.35574 18 9.92306C18 12.0585 17.0624 14.071 15.8311 15.7829C14.6049 17.4879 13.1459 18.8128 12.2434 19.5517C12.1739 19.6086 12.1228 19.6504 12.0781 19.6856C12.0418 19.7142 12.0172 19.7324 12 19.7445C11.9828 19.7324 11.9583 19.7142 11.9221 19.6857C11.8774 19.6505 11.8263 19.6087 11.7567 19.5517C10.8543 18.8128 9.39515 17.4879 8.1689 15.7829C6.9376 14.071 6 12.0586 6 9.9231C6 8.35578 6.62943 6.85037 7.75344 5.73871ZM12 2C9.88186 2 7.84819 2.83208 6.34706 4.31671C4.84557 5.8017 4 7.81818 4 9.9231C4 12.6394 5.18463 15.059 6.54525 16.9508C7.91092 18.8495 9.5134 20.2998 10.4897 21.0992L10.5408 21.1413C10.7612 21.3232 11.0494 21.5611 11.4578 21.6761C11.7913 21.7699 12.2086 21.7699 12.542 21.6761C12.9507 21.561 13.239 21.3231 13.4599 21.1408L13.5105 21.0992C14.4868 20.2998 16.0892 18.8495 17.4548 16.9507C18.8154 15.059 20 12.6394 20 9.92306C20 7.81816 19.1544 5.80172 17.6529 4.31672C16.1518 2.8321 14.1182 2 12 2ZM11 9C11 8.44772 11.4477 8 12 8C12.5523 8 13 8.44772 13 9C13 9.55228 12.5523 10 12 10C11.4477 10 11 9.55228 11 9ZM12 6C10.3431 6 9 7.34315 9 9C9 10.6569 10.3431 12 12 12C13.6569 12 15 10.6569 15 9C15 7.34315 13.6569 6 12 6Z" fill="#535353"/>
</svg>
