<svg width="24" height="24" viewBox="0 0 24 24" fill="none" xmlns="http://www.w3.org/2000/svg">
<path d="M4 9.99999L12.2286 16L19.9999 9.99999M6.2002 21H17.8002C18.9203 21 19.48 21 19.9078 20.782C20.2841 20.5902 20.5905 20.2842 20.7822 19.9079C21.0002 19.4801 21 18.9201 21 17.8V11.5372C21 10.9727 21 10.6904 20.9282 10.4298C20.8646 10.1989 20.7599 9.98126 20.6194 9.78733C20.4608 9.56841 20.2409 9.39196 19.8002 9.03913L14.2012 4.55626C13.506 3.99964 13.1581 3.72143 12.7715 3.61095C12.4304 3.51347 12.0697 3.50842 11.726 3.59642C11.3365 3.69615 10.9814 3.96479 10.271 4.50194L4.27002 9.03972C3.80429 9.3919 3.57123 9.56792 3.40332 9.79047C3.2546 9.9876 3.14377 10.2106 3.07624 10.4481C3 10.7163 3 11.0081 3 11.592V17.7999C3 18.92 3 19.4801 3.21799 19.9079C3.40973 20.2842 3.71547 20.5902 4.0918 20.782C4.51962 21 5.08009 21 6.2002 21Z" stroke="#333333" stroke-width="2" stroke-linecap="round" stroke-linejoin="round"/>
</svg>
