<svg width="20" height="21" viewBox="0 0 20 21" fill="none" xmlns="http://www.w3.org/2000/svg">
<path d="M5.25 16.5C5.0375 16.5 4.85938 16.4285 4.71563 16.2856C4.57188 16.1427 4.5 15.9656 4.5 15.7544C4.5 15.5431 4.57188 15.3646 4.71563 15.2188C4.85938 15.0729 5.0375 15 5.25 15H6L7.43775 10.0896C7.53481 9.76598 7.71528 9.50347 7.97917 9.30208C8.24306 9.10069 8.53876 9 8.86627 9H11.1337C11.4612 9 11.7569 9.10069 12.0208 9.30208C12.2847 9.50347 12.4652 9.76598 12.5623 10.0896L14 15H14.75C14.9625 15 15.1406 15.0715 15.2844 15.2144C15.4281 15.3573 15.5 15.5344 15.5 15.7456C15.5 15.9569 15.4281 16.1354 15.2844 16.2812C15.1406 16.4271 14.9625 16.5 14.75 16.5H5.25ZM7.5625 15H12.4375L11.125 10.5H8.875L7.5625 15ZM9.25 6.75V4.25C9.25 4.0375 9.32145 3.85937 9.46435 3.71562C9.60727 3.57187 9.78435 3.5 9.9956 3.5C10.2069 3.5 10.3854 3.57187 10.5312 3.71562C10.6771 3.85937 10.75 4.0375 10.75 4.25V6.75C10.75 6.9625 10.6785 7.14063 10.5356 7.28438C10.3927 7.42813 10.2156 7.5 10.0044 7.5C9.79313 7.5 9.61458 7.42813 9.46875 7.28438C9.32292 7.14063 9.25 6.9625 9.25 6.75ZM13.1875 7.75L14.9583 5.97917C15.1111 5.82639 15.2847 5.75 15.4792 5.75C15.6736 5.75 15.8472 5.82639 16 5.97917C16.1528 6.13194 16.2292 6.30903 16.2292 6.51042C16.2292 6.71181 16.1528 6.8881 16 7.03931L14.2292 8.8125C14.0814 8.96528 13.9091 9.04167 13.7121 9.04167C13.5152 9.04167 13.3403 8.96528 13.1875 8.8125C13.0347 8.65972 12.9583 8.48148 12.9583 8.27777C12.9583 8.07408 13.0347 7.89815 13.1875 7.75ZM15.25 11.25H17.75C17.9625 11.25 18.1406 11.3215 18.2844 11.4644C18.4281 11.6073 18.5 11.7844 18.5 11.9956C18.5 12.2069 18.4281 12.3854 18.2844 12.5312C18.1406 12.6771 17.9625 12.75 17.75 12.75H15.25C15.0375 12.75 14.8594 12.6785 14.7156 12.5356C14.5719 12.3927 14.5 12.2156 14.5 12.0044C14.5 11.7931 14.5719 11.6146 14.7156 11.4688C14.8594 11.3229 15.0375 11.25 15.25 11.25ZM5.75 8.8125L3.97917 7.04167C3.82639 6.88889 3.75 6.71528 3.75 6.52083C3.75 6.32639 3.82639 6.15278 3.97917 6C4.13194 5.84722 4.30903 5.77083 4.51042 5.77083C4.71181 5.77083 4.8881 5.84722 5.03931 6L6.8125 7.77083C6.96528 7.91856 7.04167 8.0909 7.04167 8.28788C7.04167 8.48485 6.96528 8.65972 6.8125 8.8125C6.65972 8.96528 6.48148 9.04167 6.27777 9.04167C6.07408 9.04167 5.89815 8.96528 5.75 8.8125ZM2.25 12.75C2.0375 12.75 1.85938 12.6785 1.71562 12.5356C1.57187 12.3927 1.5 12.2156 1.5 12.0044C1.5 11.7931 1.57187 11.6146 1.71562 11.4688C1.85938 11.3229 2.0375 11.25 2.25 11.25H4.75C4.9625 11.25 5.14062 11.3215 5.28437 11.4644C5.42812 11.6073 5.5 11.7844 5.5 11.9956C5.5 12.2069 5.42812 12.3854 5.28437 12.5312C5.14062 12.6771 4.9625 12.75 4.75 12.75H2.25Z" fill="#737373"/>
</svg>
