<svg width="20" height="20" viewBox="0 0 20 20" fill="none" xmlns="http://www.w3.org/2000/svg">
<path d="M14.1667 16.6667C14.1667 15.286 12.3012 14.1667 10 14.1667C7.69881 14.1667 5.83333 15.286 5.83333 16.6667M17.5 14.1667C17.5 13.1415 16.4716 12.2605 15 11.8747M2.5 14.1667C2.5 13.1415 3.52841 12.2605 5 11.8747M15 8.53017C15.5115 8.0724 15.8333 7.40716 15.8333 6.66675C15.8333 5.28604 14.714 4.16675 13.3333 4.16675C12.693 4.16675 12.109 4.40746 11.6667 4.80333M5 8.53017C4.48854 8.0724 4.16667 7.40716 4.16667 6.66675C4.16667 5.28604 5.28595 4.16675 6.66667 4.16675C7.30696 4.16675 7.89104 4.40746 8.33333 4.80333M10 11.6667C8.61929 11.6667 7.5 10.5475 7.5 9.16675C7.5 7.78604 8.61929 6.66675 10 6.66675C11.3807 6.66675 12.5 7.78604 12.5 9.16675C12.5 10.5475 11.3807 11.6667 10 11.6667Z" stroke="#939393" stroke-width="1.4" stroke-linecap="round" stroke-linejoin="round"/>
</svg>
